<mxfile host="app.diagrams.net" modified="2024-04-20T17:54:09.386Z" agent="Mozilla/5.0 (X11; Ubuntu; Linux x86_64; rv:120.0) Gecko/20100101 Firefox/120.0" etag="DCJeaZufdlxdVj8b-T94" version="24.2.5" type="device">
  <diagram name="Page-1" id="JTsFHl4Ltjg1e31Q2gK1">
    <mxGraphModel dx="533" dy="1085" grid="1" gridSize="10" guides="1" tooltips="1" connect="1" arrows="1" fold="1" page="1" pageScale="1" pageWidth="850" pageHeight="1100" math="0" shadow="0">
      <root>
        <mxCell id="0" />
        <mxCell id="1" parent="0" />
        <mxCell id="nfLSfXjzqjy2KfxVSTSF-4" value="VPC 10.10.0.0/16" style="points=[[0,0],[0.25,0],[0.5,0],[0.75,0],[1,0],[1,0.25],[1,0.5],[1,0.75],[1,1],[0.75,1],[0.5,1],[0.25,1],[0,1],[0,0.75],[0,0.5],[0,0.25]];outlineConnect=0;gradientColor=none;html=1;whiteSpace=wrap;fontSize=12;fontStyle=0;container=1;pointerEvents=0;collapsible=0;recursiveResize=0;shape=mxgraph.aws4.group;grIcon=mxgraph.aws4.group_vpc2;strokeColor=#8C4FFF;fillColor=none;verticalAlign=top;align=left;spacingLeft=30;fontColor=#AAB7B8;dashed=0;" parent="1" vertex="1">
          <mxGeometry x="110" y="90" width="640" height="500" as="geometry" />
        </mxCell>
        <mxCell id="nfLSfXjzqjy2KfxVSTSF-5" value="Public subnet 10.10.0.0/24" style="points=[[0,0],[0.25,0],[0.5,0],[0.75,0],[1,0],[1,0.25],[1,0.5],[1,0.75],[1,1],[0.75,1],[0.5,1],[0.25,1],[0,1],[0,0.75],[0,0.5],[0,0.25]];outlineConnect=0;gradientColor=none;html=1;whiteSpace=wrap;fontSize=12;fontStyle=0;container=1;pointerEvents=0;collapsible=0;recursiveResize=0;shape=mxgraph.aws4.group;grIcon=mxgraph.aws4.group_security_group;grStroke=0;strokeColor=#7AA116;fillColor=#F2F6E8;verticalAlign=top;align=left;spacingLeft=30;fontColor=#248814;dashed=0;" parent="nfLSfXjzqjy2KfxVSTSF-4" vertex="1">
          <mxGeometry x="25" y="50" width="300" height="420" as="geometry" />
        </mxCell>
        <mxCell id="nfLSfXjzqjy2KfxVSTSF-7" value="Public instance" style="sketch=0;points=[[0,0,0],[0.25,0,0],[0.5,0,0],[0.75,0,0],[1,0,0],[0,1,0],[0.25,1,0],[0.5,1,0],[0.75,1,0],[1,1,0],[0,0.25,0],[0,0.5,0],[0,0.75,0],[1,0.25,0],[1,0.5,0],[1,0.75,0]];outlineConnect=0;fontColor=#232F3E;fillColor=#ED7100;strokeColor=#ffffff;dashed=0;verticalLabelPosition=bottom;verticalAlign=top;align=center;html=1;fontSize=12;fontStyle=0;aspect=fixed;shape=mxgraph.aws4.resourceIcon;resIcon=mxgraph.aws4.ec2;" parent="nfLSfXjzqjy2KfxVSTSF-5" vertex="1">
          <mxGeometry x="111" y="171" width="78" height="78" as="geometry" />
        </mxCell>
        <mxCell id="gR1zjQGBmcn2MkIPl-I_-2" value="Public CRT" style="outlineConnect=0;dashed=0;verticalLabelPosition=bottom;verticalAlign=top;align=center;html=1;shape=mxgraph.aws3.route_table;fillColor=#F58536;gradientColor=none;" parent="nfLSfXjzqjy2KfxVSTSF-5" vertex="1">
          <mxGeometry x="5" y="370" width="35" height="40" as="geometry" />
        </mxCell>
        <mxCell id="gR1zjQGBmcn2MkIPl-I_-3" style="edgeStyle=none;curved=1;rounded=0;orthogonalLoop=1;jettySize=auto;html=1;exitX=1;exitY=1;exitDx=0;exitDy=0;exitPerimeter=0;fontSize=12;startSize=8;endSize=8;" parent="nfLSfXjzqjy2KfxVSTSF-5" source="gR1zjQGBmcn2MkIPl-I_-2" target="gR1zjQGBmcn2MkIPl-I_-2" edge="1">
          <mxGeometry relative="1" as="geometry" />
        </mxCell>
        <mxCell id="nfLSfXjzqjy2KfxVSTSF-6" value="Private subnet 10.10.1.0/24" style="points=[[0,0],[0.25,0],[0.5,0],[0.75,0],[1,0],[1,0.25],[1,0.5],[1,0.75],[1,1],[0.75,1],[0.5,1],[0.25,1],[0,1],[0,0.75],[0,0.5],[0,0.25]];outlineConnect=0;gradientColor=none;html=1;whiteSpace=wrap;fontSize=12;fontStyle=0;container=1;pointerEvents=0;collapsible=0;recursiveResize=0;shape=mxgraph.aws4.group;grIcon=mxgraph.aws4.group_security_group;grStroke=0;strokeColor=#00A4A6;fillColor=#E6F6F7;verticalAlign=top;align=left;spacingLeft=30;fontColor=#147EBA;dashed=0;" parent="nfLSfXjzqjy2KfxVSTSF-4" vertex="1">
          <mxGeometry x="340" y="50" width="290" height="420" as="geometry" />
        </mxCell>
        <mxCell id="gR1zjQGBmcn2MkIPl-I_-1" value="" style="outlineConnect=0;dashed=0;verticalLabelPosition=bottom;verticalAlign=top;align=center;html=1;shape=mxgraph.aws3.internet_gateway;fillColor=#F58534;gradientColor=none;" parent="1" vertex="1">
          <mxGeometry x="70" y="304" width="69" height="72" as="geometry" />
        </mxCell>
        <mxCell id="Njl5uPff_6uWt4Vitm5A-3" value="&lt;table aria-labelledby=&quot;heading227-1713629114899-2931&quot; aria-rowcount=&quot;2&quot; role=&quot;table&quot; class=&quot;awsui_table_wih1l_1efw1_152 awsui_table-layout-fixed_wih1l_1efw1_158&quot;&gt;&lt;tbody&gt;&lt;tr aria-rowindex=&quot;2&quot; data-selection-item=&quot;item&quot; class=&quot;awsui_row_wih1l_1efw1_314&quot;&gt;&lt;td class=&quot;awsui_selection-control_wih1l_1efw1_235 awsui_body-cell_c6tup_1p4z2_99 awsui_body-cell-first-row_c6tup_1p4z2_178 awsui_body-cell-last-row_c6tup_1p4z2_181 awsui_has-selection_c6tup_1p4z2_172&quot;&gt;&lt;br&gt;&lt;/td&gt;&lt;td class=&quot;awsui_body-cell_c6tup_1p4z2_99 awsui_body-cell-wrap_c6tup_1p4z2_136 awsui_body-cell-first-row_c6tup_1p4z2_178 awsui_body-cell-last-row_c6tup_1p4z2_181&quot;&gt;&lt;a href=&quot;https://eu-west-3.console.aws.amazon.com/s3/buckets/pantera-h1tr25rn?region=eu-west-3&quot; class=&quot;bucket-name&quot;&gt;pantera-h1tr25rn&lt;/a&gt;&lt;/td&gt;&lt;/tr&gt;&lt;/tbody&gt;&lt;/table&gt;" style="outlineConnect=0;dashed=0;verticalLabelPosition=bottom;verticalAlign=top;align=center;html=1;shape=mxgraph.aws3.s3;fillColor=#E05243;gradientColor=none;" vertex="1" parent="1">
          <mxGeometry x="250" y="610" width="76.5" height="93" as="geometry" />
        </mxCell>
      </root>
    </mxGraphModel>
  </diagram>
</mxfile>
